<?xml version="1.0" standalone="no"?>
<!DOCTYPE svg PUBLIC "-//W3C//DTD SVG 20010904//EN"
 "http://www.w3.org/TR/2001/REC-SVG-20010904/DTD/svg10.dtd">
<svg version="1.0" xmlns="http://www.w3.org/2000/svg"
 width="100pt" height="50pt" viewBox="0 0 545.567067 110.167765"
 preserveAspectRatio="xMidYMid meet">
<metadata>
Created by potrace 1.12, written by Peter Selinger 2001-2015
</metadata>
<g transform="translate(-27.500000,170.985532) scale(0.100000,-0.100000)"
fill="#8C113E" stroke="none">
<path d="M1311 1699 c-65 -11 -132 -48 -161 -88 -52 -74 -54 -92 -54 -451 -1
-361 3 -394 51 -458 30 -40 73 -68 128 -83 69 -19 366 -12 703 17 l72 7 0 299
0 298 -232 -2 -233 -3 -3 -87 -3 -88 101 0 101 0 -3 -117 -3 -118 -182 -3
c-172 -2 -184 -1 -203 18 -19 19 -20 32 -20 313 l0 294 26 24 26 24 269 3 270
3 -3 102 -3 102 -295 1 c-162 1 -320 -2 -349 -7z"/>
<path d="M2227 1703 c-4 -3 -7 -249 -7 -545 l0 -538 430 0 430 0 0 105 0 105
-292 2 -293 3 0 115 0 115 228 3 227 2 0 105 0 105 -230 0 -231 0 3 108 3 107
293 3 293 2 -3 103 -3 102 -421 3 c-231 1 -424 -1 -427 -5z"/>
<path d="M3217 1704 c-4 -4 -7 -250 -7 -546 l0 -538 135 0 135 0 0 165 0 165
113 0 114 0 89 -165 89 -165 148 0 148 0 -24 43 c-78 136 -146 255 -156 275
-11 20 -9 23 16 33 118 45 160 157 150 398 -3 69 -10 142 -16 162 -23 77 -81
135 -160 161 -41 13 -761 25 -774 12z m623 -217 c48 -17 63 -63 58 -186 -4
-88 -6 -95 -32 -117 -26 -23 -32 -24 -207 -24 l-179 0 0 163 c0 90 3 167 7
170 11 12 316 7 353 -6z"/>
<path d="M4714 1702 c-6 -4 -115 -249 -242 -544 l-230 -538 137 0 136 0 217
528 c120 290 220 535 224 545 6 16 -4 17 -112 17 -66 0 -124 -4 -130 -8z"/>
<path d="M605 1280 l-330 -148 0 -101 0 -102 325 -145 c179 -79 333 -147 343
-150 16 -5 17 3 15 106 l-3 112 -180 72 c-99 40 -198 81 -220 90 l-40 17 223
91 222 91 0 108 c0 81 -3 109 -12 108 -7 -1 -161 -68 -343 -149z"/>
<path d="M5030 1323 l0 -109 220 -88 c121 -48 220 -91 220 -95 0 -4 -93 -44
-207 -90 -115 -46 -214 -88 -220 -94 -16 -12 -18 -217 -3 -217 5 0 163 68 350
151 l341 152 -3 99 -3 99 -325 145 c-179 79 -335 147 -347 150 -23 6 -23 5
-23 -103z"/>
</g>
</svg>
